<?xml version="1.0" encoding="utf-8"?>
<!-- Generator: Adobe Illustrator 26.3.1, SVG Export Plug-In . SVG Version: 6.00 Build 0)  -->
<svg version="1.1" id="Layer_1" xmlns="http://www.w3.org/2000/svg" xmlns:xlink="http://www.w3.org/1999/xlink" x="0px" y="0px"
	 viewBox="0 0 88 94" style="enable-background:new 0 0 88 94;" xml:space="preserve">
<style type="text/css">
	.st0{fill:#FFFFFF;}
	.st1{fill:url(#SVGID_1_);}
	.st2{fill:url(#SVGID_00000085951600496612882380000005633102418574811068_);}
</style>
<path class="st0" d="M78.2,61.9c-1.1,1.1-1.6,2.6-1.6,4.5v15.5h4.2V70.7h5.1v-3.5h-5.1v-0.7c0-0.4,0-0.7,0.1-1.1
	c0.1-0.3,0.2-0.6,0.4-0.9c0.2-0.3,0.5-0.5,0.8-0.6c0.4-0.1,0.8-0.2,1.3-0.2c0.4,0,0.8,0,1.2,0.1c0.4,0.1,0.8,0.2,1.2,0.4l0.8-3.3
	c-0.5-0.2-1-0.3-1.5-0.5c-0.7-0.2-1.4-0.2-2.2-0.2C80.9,60.2,79.3,60.8,78.2,61.9L78.2,61.9z M69.1,77.6c-0.2,0.4-0.6,0.7-0.9,0.9
	c-0.4,0.2-0.8,0.3-1.2,0.3c-0.4,0-0.9-0.1-1.3-0.3c-0.4-0.2-0.7-0.5-1-0.9c-0.5-0.8-0.8-1.8-0.8-3.1c0-1.3,0.3-2.3,0.8-3
	c0.2-0.4,0.6-0.6,1-0.8c0.4-0.2,0.8-0.3,1.2-0.3c0.4,0,0.9,0.1,1.2,0.3s0.7,0.5,1,0.8c0.5,0.7,0.8,1.7,0.8,3
	C69.9,75.8,69.6,76.8,69.1,77.6z M73.6,71.4c-0.3-0.9-0.8-1.7-1.5-2.4c-0.6-0.7-1.4-1.2-2.3-1.6c-1.9-0.7-3.9-0.7-5.8,0
	c-0.9,0.4-1.6,0.9-2.3,1.6c-0.7,0.7-1.2,1.5-1.5,2.4c-0.4,1-0.6,2.1-0.5,3.2c0,1.1,0.2,2.2,0.5,3.2c0.3,0.9,0.8,1.7,1.5,2.5
	c0.6,0.7,1.4,1.2,2.3,1.6c1.9,0.7,4,0.7,5.9,0c0.9-0.4,1.6-0.9,2.3-1.6c0.7-0.7,1.1-1.5,1.5-2.5c0.3-1,0.5-2.1,0.5-3.2
	C74.1,73.4,73.9,72.4,73.6,71.4L73.6,71.4z M48.8,81.9V70.7c0.3-0.1,0.6-0.1,0.9-0.2c0.3-0.1,0.7-0.1,1.1-0.1c0.9,0,1.6,0.3,1.9,0.8
	c0.3,0.6,0.5,1.5,0.5,2.8v7.8h4.2v-8.3c0-0.9-0.1-1.8-0.3-2.7c-0.2-0.8-0.5-1.5-1-2.1c-0.5-0.6-1.2-1.1-1.9-1.4c-1-0.4-2-0.5-3-0.5
	c-0.4,0-0.9,0-1.3,0.1c-0.4,0.1-0.7,0.2-1.1,0.3v-7l-4.2,0.7v21L48.8,81.9z M33.8,78.7c-0.7-0.2-1.5-0.4-2.2-0.7l-0.7,3.4
	c1.6,0.6,3.3,0.9,5.1,0.9c2,0,3.5-0.4,4.6-1.1c1.1-0.7,1.6-1.8,1.6-3.3c0-0.5-0.1-1.1-0.2-1.6c-0.1-0.5-0.4-0.9-0.7-1.3
	c-0.4-0.4-0.9-0.8-1.4-1.1c-0.7-0.4-1.5-0.7-2.3-1c-0.4-0.2-0.8-0.3-1.1-0.5c-0.2-0.1-0.5-0.2-0.7-0.4c-0.1-0.1-0.3-0.2-0.3-0.4
	c-0.1-0.1-0.1-0.3-0.1-0.4c0-0.7,0.7-1.1,2-1.1c0.6,0,1.3,0.1,1.9,0.2c0.5,0.1,1.1,0.3,1.6,0.4l0.7-3.2c-0.6-0.2-1.3-0.4-2-0.5
	c-0.8-0.2-1.7-0.2-2.6-0.2c-1.8,0-3.2,0.4-4.2,1.2c-0.5,0.4-0.9,0.9-1.2,1.4c-0.3,0.6-0.4,1.2-0.4,1.8c0,0.6,0.1,1.2,0.3,1.8
	c0.2,0.5,0.5,0.9,0.9,1.3c0.4,0.4,0.9,0.7,1.4,0.9c0.6,0.3,1.2,0.5,1.8,0.8c0.6,0.2,1.3,0.5,1.9,0.9c0.4,0.3,0.6,0.5,0.6,0.9
	c0,0.2,0,0.4-0.1,0.5c-0.1,0.2-0.2,0.3-0.4,0.4c-0.5,0.2-1.1,0.3-1.6,0.2C35.2,78.9,34.5,78.8,33.8,78.7L33.8,78.7z M20.8,66.9
	c-0.5,0-0.9,0.1-1.4,0.2c-0.4,0.1-0.8,0.1-1.2,0.2c-0.4,0.1-0.7,0.2-0.9,0.2l0.5,3.4c0.6-0.2,1.2-0.4,1.8-0.4
	c0.7-0.1,1.4-0.2,2.1-0.2c1.1,0,1.8,0.2,2.2,0.6c0.2,0.2,0.4,0.5,0.5,0.8c0.1,0.3,0.2,0.6,0.1,0.9V73c-0.3-0.1-0.7-0.2-1-0.2
	c-0.5,0-1-0.1-1.4-0.1c-0.8,0-1.6,0.1-2.3,0.2c-0.7,0.1-1.4,0.4-2,0.8c-0.6,0.4-1,0.8-1.4,1.4c-0.4,0.7-0.5,1.4-0.5,2.2
	c0,0.8,0.1,1.6,0.4,2.3c0.3,0.6,0.7,1.1,1.3,1.5c0.6,0.4,1.3,0.7,2,0.8c0.9,0.2,1.7,0.3,2.6,0.3c1.3,0,2.6-0.1,3.9-0.3
	c1.1-0.2,1.9-0.3,2.5-0.5v-8.7c0-0.8-0.1-1.7-0.3-2.5c-0.2-0.7-0.5-1.4-1.1-1.9c-0.5-0.6-1.2-1-2-1.2c-1-0.3-2-0.4-3.1-0.4
	C21.8,66.8,21.3,66.8,20.8,66.9L20.8,66.9z M20.8,78.6c-0.4-0.3-0.7-0.7-0.7-1.4c0-0.3,0.1-0.6,0.2-0.8c0.2-0.2,0.4-0.4,0.6-0.5
	c0.3-0.1,0.6-0.2,0.9-0.3c0.4,0,0.7-0.1,1.1-0.1c0.3,0,0.6,0,0.9,0.1c0.3,0,0.6,0.1,0.8,0.1v3.2c-0.2,0-0.5,0.1-0.9,0.1
	c-0.4,0-0.8,0-1.2,0C22,79,21.3,78.9,20.8,78.6L20.8,78.6z M9.1,66.6c0.7,0.4,1.1,1.1,1.1,2c0,1-0.4,1.7-1.1,2.1
	c-0.7,0.4-1.9,0.6-3.5,0.6H4.4v-5.3l0.7-0.1c0.3,0,0.5,0,0.9,0C7.3,66,8.4,66.2,9.1,66.6L9.1,66.6z M2.9,62.4c-1,0.1-2,0.2-2.9,0.4
	v19.1h4.4v-7.1h2.2c0.4,0.4,0.7,0.9,1.1,1.5c0.4,0.6,0.8,1.1,1.1,1.7s0.8,1.2,1.1,1.9l1.1,1.9h4.9c-0.3-0.7-0.7-1.4-1.1-2.2
	c-0.4-0.7-0.8-1.5-1.2-2.1c-0.4-0.7-0.8-1.3-1.3-2C11.8,75,11.4,74.5,11,74c1.1-0.4,2-1.1,2.7-2c0.6-0.8,0.9-2,0.9-3.3
	c0-2.2-0.8-3.8-2.3-4.8s-3.8-1.6-6.7-1.6C4.9,62.3,4,62.3,2.9,62.4"/>
<path class="st0" d="M83.9,93.1v-2.4c0.4-0.6,0.7-1.2,1.1-1.8c0.3-0.6,0.6-1.1,0.9-1.7h-0.6c-0.2,0.5-0.5,1-0.8,1.5
	c-0.3,0.5-0.6,1-0.9,1.5c-0.3-0.5-0.6-0.9-0.9-1.5c-0.3-0.5-0.5-1-0.8-1.5h-0.7c0.3,0.5,0.6,1.1,0.9,1.7c0.3,0.6,0.7,1.2,1.1,1.8
	v2.4H83.9z M79.2,93.1v-0.5h-3v-2.3h2.5v-0.5h-2.5v-2h2.8v-0.5h-3.4v5.9H79.2z M72.4,93.1v-5.9h-0.6V92c-0.2-0.3-0.4-0.7-0.7-1.1
	c-0.3-0.4-0.6-0.8-0.9-1.3c-0.3-0.4-0.6-0.9-1-1.3c-0.3-0.4-0.6-0.8-0.9-1.1h-0.5v5.9h0.6v-4.9c0.2,0.2,0.3,0.4,0.5,0.7
	c0.2,0.3,0.4,0.5,0.6,0.8c0.2,0.3,0.4,0.6,0.7,0.9c0.2,0.3,0.4,0.6,0.6,0.9c0.2,0.3,0.4,0.6,0.5,0.8c0.2,0.3,0.3,0.5,0.4,0.7H72.4z
	 M64.1,91.2c-0.1,0.3-0.2,0.6-0.4,0.8c-0.2,0.2-0.4,0.4-0.7,0.5c-0.3,0.1-0.6,0.2-0.9,0.2c-0.3,0-0.6-0.1-0.9-0.2
	c-0.3-0.1-0.5-0.3-0.7-0.5c-0.2-0.2-0.3-0.5-0.4-0.8c-0.2-0.7-0.2-1.4,0-2.1c0.1-0.3,0.2-0.6,0.4-0.8c0.2-0.2,0.4-0.4,0.7-0.5
	c0.6-0.2,1.2-0.2,1.8,0c0.3,0.1,0.5,0.3,0.7,0.5c0.2,0.2,0.3,0.5,0.4,0.8C64.3,89.8,64.3,90.5,64.1,91.2z M64.7,88.8
	c-0.1-0.4-0.3-0.7-0.6-1c-0.2-0.3-0.5-0.4-0.9-0.6c-0.7-0.3-1.4-0.3-2.1,0c-0.3,0.1-0.6,0.3-0.9,0.6c-0.3,0.3-0.5,0.6-0.6,1
	c-0.2,0.4-0.2,0.9-0.2,1.3c0,0.5,0.1,0.9,0.2,1.3c0.1,0.4,0.3,0.7,0.6,1c0.2,0.3,0.5,0.5,0.9,0.6c0.7,0.3,1.4,0.3,2.1,0
	c0.3-0.1,0.6-0.3,0.9-0.6c0.3-0.3,0.5-0.6,0.6-1c0.2-0.4,0.2-0.9,0.2-1.3C64.9,89.7,64.8,89.2,64.7,88.8z M55.9,89.8h-3.2v-2.5h-0.6
	v5.9h0.6v-2.8h3.2v2.8h0.6v-5.9h-0.6L55.9,89.8z M43.1,92.6v-5.4h-0.6v5.9h3.3v-0.5H43.1z M38,89.4c0.2,0.5,0.4,1,0.6,1.6h-2.5
	c0.2-0.6,0.4-1.1,0.6-1.6c0.2-0.5,0.4-1,0.6-1.5C37.6,88.4,37.8,88.9,38,89.4z M40,93.1c-0.2-0.6-0.5-1.2-0.6-1.7
	c-0.2-0.5-0.4-1-0.6-1.5c-0.2-0.5-0.4-0.9-0.6-1.4c-0.2-0.4-0.4-0.9-0.6-1.3h-0.5c-0.2,0.4-0.4,0.9-0.6,1.3
	c-0.2,0.4-0.4,0.9-0.6,1.4c-0.2,0.5-0.4,1-0.6,1.5c-0.2,0.5-0.4,1.1-0.6,1.7h0.6c0.1-0.3,0.2-0.6,0.3-0.8c0.1-0.3,0.2-0.5,0.3-0.8
	h2.9c0.1,0.2,0.2,0.5,0.3,0.8c0.1,0.3,0.2,0.5,0.3,0.8L40,93.1z M30.5,87.7c0.2,0,0.4,0.1,0.6,0.2c0.2,0.1,0.3,0.2,0.4,0.4
	c0.1,0.2,0.2,0.4,0.2,0.6c0,0.2,0,0.5-0.2,0.7c-0.1,0.2-0.2,0.3-0.4,0.4c-0.2,0.1-0.4,0.2-0.6,0.2c-0.2,0-0.5,0-0.8,0h-0.8v-2.5
	l0.4,0c0.2,0,0.3,0,0.6,0C30,87.7,30.3,87.7,30.5,87.7L30.5,87.7z M31.6,87.6c-0.4-0.3-1-0.5-1.8-0.5c-0.2,0-0.5,0-0.8,0
	c-0.2,0-0.5,0.1-0.7,0.1v5.8h0.6v-2.4h0.9c0.2,0,0.4,0,0.5,0l0.4,0.5c0.1,0.2,0.3,0.4,0.4,0.6c0.2,0.2,0.3,0.4,0.4,0.7
	c0.1,0.2,0.3,0.5,0.4,0.7h0.6c-0.1-0.2-0.2-0.5-0.4-0.7c-0.1-0.3-0.3-0.5-0.4-0.7c-0.2-0.2-0.3-0.4-0.4-0.6
	c-0.1-0.2-0.3-0.3-0.4-0.5c0.3-0.1,0.7-0.3,0.9-0.5c0.2-0.3,0.4-0.7,0.3-1.1c0-0.3,0-0.5-0.1-0.8C31.9,88,31.8,87.8,31.6,87.6
	L31.6,87.6z M23.9,93c0.3-0.1,0.5-0.3,0.7-0.5c0.2-0.2,0.3-0.5,0.4-0.7c0.1-0.3,0.1-0.6,0.1-0.9v-3.7h-0.6v3.6c0,0.3,0,0.6-0.1,0.8
	c-0.1,0.2-0.2,0.4-0.3,0.6c-0.1,0.2-0.3,0.3-0.5,0.3c-0.4,0.1-0.9,0.1-1.3,0c-0.2-0.1-0.4-0.2-0.5-0.3c-0.1-0.2-0.3-0.4-0.3-0.6
	c-0.1-0.3-0.1-0.6-0.1-0.8v-3.6h-0.6v3.7c0,0.3,0,0.6,0.1,0.9c0.1,0.3,0.2,0.5,0.4,0.7c0.2,0.2,0.4,0.4,0.7,0.5
	C22.6,93.3,23.3,93.3,23.9,93L23.9,93z M13.9,87.2v0.5h1.9v5.4h0.6v-5.4h1.9v-0.5H13.9z M10.4,89.4c0.2,0.5,0.4,1,0.6,1.6H8.5
	c0.2-0.6,0.4-1.1,0.6-1.6c0.2-0.5,0.4-1,0.6-1.5C10,88.4,10.2,88.9,10.4,89.4z M12.4,93.1c-0.2-0.6-0.5-1.2-0.6-1.7
	c-0.2-0.5-0.4-1-0.6-1.5c-0.2-0.5-0.4-0.9-0.6-1.4c-0.2-0.4-0.4-0.9-0.6-1.3H9.5c-0.2,0.4-0.4,0.9-0.6,1.3c-0.2,0.4-0.4,0.9-0.6,1.4
	c-0.2,0.5-0.4,1-0.6,1.5c-0.2,0.5-0.4,1.1-0.6,1.7h0.6l0.3-0.8c0.1-0.3,0.2-0.5,0.3-0.8h2.9l0.3,0.8c0.1,0.3,0.2,0.5,0.3,0.8
	L12.4,93.1z M4.6,93.1v-5.9H4.1V92c-0.2-0.3-0.4-0.7-0.7-1.1c-0.3-0.4-0.6-0.8-0.9-1.3c-0.3-0.4-0.6-0.9-1-1.3
	c-0.3-0.4-0.6-0.8-0.9-1.1H0.1v5.9h0.6v-4.9c0.2,0.2,0.3,0.4,0.6,0.7c0.2,0.3,0.4,0.5,0.6,0.8c0.2,0.3,0.4,0.6,0.7,0.9
	c0.2,0.3,0.4,0.6,0.6,0.9c0.2,0.3,0.4,0.6,0.5,0.8s0.3,0.5,0.4,0.7H4.6z"/>
<linearGradient id="SVGID_1_" gradientUnits="userSpaceOnUse" x1="41498.1992" y1="64.1887" x2="50380" y2="64.1887" gradientTransform="matrix(1 0 0 -1 0 93.8898)">
	<stop  offset="0" style="stop-color:#D9AD6A"/>
	<stop  offset="0.28" style="stop-color:#C38F52"/>
	<stop  offset="0.31" style="stop-color:#C99558"/>
	<stop  offset="0.52" style="stop-color:#EFBC79"/>
	<stop  offset="0.63" style="stop-color:#FECB86"/>
	<stop  offset="0.76" style="stop-color:#EDBA77"/>
	<stop  offset="1" style="stop-color:#C38F52"/>
</linearGradient>
<path class="st1" d="M55.6,6.9c-0.3,0-7.6,0.2-13.4,6.8C36.4,7,29.1,6.9,28.8,6.9c-2.8,0-5.5,1.2-7.5,3.2c-2,2-3.1,4.7-3.1,7.5
	s1.1,5.5,3.1,7.5c2,2,4.7,3.2,7.5,3.2c1.4,0,2.8-0.2,4.2-0.5c-1,2.2-1.5,4.6-1.5,7c0,2.4,0.8,4.8,2.3,6.7c1.5,1.9,3.6,3.2,6,3.8v0.1
	v4.7c0,0.6,0.3,1.2,0.7,1.7c0.5,0.5,1.1,0.7,1.7,0.7s1.2-0.3,1.7-0.7c0.5-0.5,0.7-1.1,0.7-1.7v-4.7v-0.1c2.4-0.5,4.5-1.9,6-3.8
	c1.5-1.9,2.3-4.2,2.3-6.7c0-0.2-0.1-3.4-1.9-7.1c1.5,0.4,3.1,0.6,4.7,0.6c1.4,0,2.8-0.2,4.2-0.8c1.3-0.5,2.5-1.3,3.5-2.3
	c1-1,1.8-2.2,2.4-3.5c0.5-1.3,0.8-2.7,0.8-4.1c0-1.4-0.3-2.8-0.8-4.1S64.3,11,63.3,10c-1-1-2.2-1.8-3.5-2.3
	C58.5,7.1,57.1,6.9,55.6,6.9L55.6,6.9z M22.9,17.6c0-1.6,0.6-3.1,1.7-4.2c1.1-1.1,2.6-1.7,4.2-1.7c0.3,0,6.1,0.2,10.6,6
	c-1.3,2-4.7,5.8-10.6,5.8c-1.6,0-3.1-0.6-4.2-1.7S22.9,19.2,22.9,17.6L22.9,17.6z M42.2,40.8c-0.8,0-1.6-0.2-2.3-0.5
	c-0.7-0.3-1.4-0.7-1.9-1.3c-0.6-0.6-1-1.2-1.3-1.9c-0.3-0.7-0.4-1.5-0.4-2.3c0-5.9,3.8-9.3,5.8-10.6c5.8,4.5,6,10.4,6,10.6
	c0,1.6-0.6,3.1-1.7,4.2C45.3,40.2,43.8,40.8,42.2,40.8L42.2,40.8z M55.7,23.5c-5.9,0-9.3-3.8-10.6-5.8c4.5-5.8,10.4-6,10.6-6
	c1.5,0,3,0.7,4.1,1.8c1.1,1.1,1.7,2.6,1.7,4.1c0,1.5-0.6,3-1.7,4.1C58.7,22.9,57.2,23.5,55.7,23.5"/>
<linearGradient id="SVGID_00000168803420389744537830000003831193230144104380_" gradientUnits="userSpaceOnUse" x1="10374.7002" y1="89.5077" x2="10845.4004" y2="89.5077" gradientTransform="matrix(1 0 0 -1 0 93.8898)">
	<stop  offset="0" style="stop-color:#D9AD6A"/>
	<stop  offset="0.28" style="stop-color:#C38F52"/>
	<stop  offset="0.31" style="stop-color:#C99558"/>
	<stop  offset="0.52" style="stop-color:#EFBC79"/>
	<stop  offset="0.63" style="stop-color:#FECB86"/>
	<stop  offset="0.76" style="stop-color:#EDBA77"/>
	<stop  offset="1" style="stop-color:#C38F52"/>
</linearGradient>
<path style="fill:url(#SVGID_00000168803420389744537830000003831193230144104380_);" d="M42.1,8.7L42.1,8.7L42.1,8.7l0.2,0.1V8.7
	c7.9-3.4,4.9-7.5,4.9-7.5c-2.2-2.7-4.5,0.1-5,0.8c-0.5-0.8-2.8-3.5-5-0.8C37.2,1.1,34.2,5.3,42.1,8.7"/>
</svg>
