<svg width="45" height="57" viewBox="0 0 45 57" fill="none" xmlns="http://www.w3.org/2000/svg">
<path d="M2.84192 37.9112H42.0891C42.8757 37.9112 43.6002 38.1941 44.166 38.6702V3.27321C44.166 1.95531 43.0896 0.878906 41.7717 0.878906H3.15931C1.84141 0.878906 0.765015 1.95531 0.765015 3.27321V38.6633C1.33081 38.201 2.04842 37.9112 2.84192 37.9112Z" fill="#045C4D"/>
<path d="M7.02994 11.3953C4.71844 11.3953 3.89734 9.91868 3.89734 8.64908C3.89734 7.02758 5.25664 5.89598 7.20934 5.89598H7.51984V5.41298H8.55484V10.3603H15.5583V5.89598H16.5933V10.3603H23.1207V5.89598H24.135V11.3953H7.02994ZM6.89194 6.93098C5.94664 6.93098 4.93234 7.58648 4.93234 8.64908C4.93234 9.82898 5.91904 10.3603 6.89194 10.3603H7.51984V6.93098H6.89194ZM8.69284 4.06058C8.69284 3.70868 8.39614 3.42578 8.02354 3.42578C7.65094 3.42578 7.36114 3.70178 7.36114 4.06058C7.36114 4.42628 7.64404 4.70228 8.02354 4.70228C8.40304 4.70228 8.69284 4.42628 8.69284 4.06058ZM6.82294 4.06058C6.82294 3.70868 6.53314 3.42578 6.16054 3.42578C5.78794 3.42578 5.49814 3.70178 5.49814 4.06058C5.49814 4.42628 5.78104 4.70228 6.16054 4.70228C6.54004 4.70228 6.82294 4.42628 6.82294 4.06058ZM16.7589 12.7546C16.7589 12.3958 16.4622 12.1129 16.0758 12.1129C15.6894 12.1129 15.3927 12.3958 15.3927 12.7546C15.3927 13.1272 15.6825 13.4101 16.0758 13.4101C16.4691 13.4101 16.7589 13.1272 16.7589 12.7546ZM22.5756 12.7753C22.5756 12.4165 22.2858 12.1336 21.9132 12.1336C21.5406 12.1336 21.2508 12.4165 21.2508 12.7753C21.2508 13.1341 21.5337 13.4101 21.9132 13.4101C22.2927 13.4101 22.5756 13.1341 22.5756 12.7753ZM24.4455 12.7753C24.4455 12.4165 24.1488 12.1336 23.7762 12.1336C23.4036 12.1336 23.1138 12.4165 23.1138 12.7753C23.1138 13.1341 23.3967 13.4101 23.7762 13.4101C24.1626 13.4101 24.4455 13.141 24.4455 12.7753ZM26.1429 13.5136C25.9221 13.5136 25.7082 13.486 25.4805 13.4239L25.3563 13.3894L25.6254 12.3958L25.7496 12.4303C25.929 12.4786 25.9911 12.4855 26.1084 12.4855C26.5569 12.4855 26.7087 12.3337 26.7087 11.4298V5.90288H27.7437V10.3672H33.9399V5.90288H34.9749V6.51008H38.3559C39.1425 6.51008 39.6669 6.71708 40.0947 7.21388C40.419 7.57958 40.5984 8.15918 40.5984 8.83538V11.4091H27.6264V11.4643C27.6678 12.2509 27.5229 12.8167 27.1986 13.1548C26.8536 13.5136 26.3706 13.5136 26.1429 13.5136ZM34.9818 10.3603H39.5703V8.82158C39.5703 8.40758 39.4875 8.12468 39.3081 7.90388C39.108 7.66238 38.7906 7.53818 38.3628 7.53818H34.9818V10.3603ZM37.8936 4.93688C37.8936 4.57118 37.5969 4.28828 37.2105 4.28828C36.831 4.28828 36.5274 4.57808 36.5274 4.93688C36.5274 5.30948 36.8172 5.59238 37.2105 5.59238C37.6038 5.59238 37.8936 5.30948 37.8936 4.93688Z" fill="white"/>
<path d="M7.99625 16.2727C7.61675 16.2727 7.33385 15.9967 7.33385 15.631C7.33385 15.2791 7.62365 14.9962 7.99625 14.9962C8.37575 14.9962 8.66555 15.2722 8.66555 15.631C8.67245 15.9967 8.38265 16.2727 7.99625 16.2727ZM6.80255 15.6241C6.80255 15.2722 6.51275 14.9893 6.14015 14.9893C5.76755 14.9893 5.47775 15.2653 5.47775 15.6241C5.47775 15.9898 5.76065 16.2658 6.14015 16.2658C6.51965 16.2658 6.80255 15.9967 6.80255 15.6241ZM22.9003 24.3388C22.9003 23.98 22.6105 23.6971 22.2379 23.6971C21.8653 23.6971 21.5755 23.98 21.5755 24.3388C21.5755 24.6976 21.8584 24.9736 22.2379 24.9736C22.6174 24.9736 22.9003 24.7045 22.9003 24.3388ZM24.7702 24.3388C24.7702 23.98 24.4735 23.6971 24.1009 23.6971C23.7283 23.6971 23.4385 23.98 23.4385 24.3388C23.4385 24.6976 23.7214 24.9736 24.1009 24.9736C24.4873 24.9736 24.7702 24.7045 24.7702 24.3388ZM30.5455 16.0036C30.5455 15.6517 30.2557 15.3688 29.8831 15.3688C29.5105 15.3688 29.2207 15.6448 29.2207 16.0036C29.2207 16.3693 29.5036 16.6453 29.8831 16.6453C30.2626 16.6453 30.5455 16.3693 30.5455 16.0036ZM32.4154 16.0036C32.4154 15.6517 32.1187 15.3688 31.7461 15.3688C31.3735 15.3688 31.0837 15.6448 31.0837 16.0036C31.0837 16.3693 31.3666 16.6453 31.7461 16.6453C32.1256 16.6453 32.4154 16.3693 32.4154 16.0036ZM17.5528 22.9726L17.5666 22.9588H37.6249V14.8789H36.5899V21.9238H32.6776V17.4595H31.2424C29.2759 17.4595 28.0063 18.5359 28.0063 20.2057C28.0063 20.8336 28.2064 21.3856 28.5997 21.841L28.6756 21.9307H23.7559V17.4595H22.7209V21.9238H18.2083L18.229 21.8548C18.3325 21.5581 18.3808 21.2476 18.3808 20.9164C18.3808 19.2397 17.1112 17.9701 15.4345 17.9701C13.8199 17.9701 12.5572 19.2673 12.5572 20.9164C12.5572 21.2338 12.6055 21.5443 12.709 21.8548L12.7297 21.9238H8.53445V16.9765H7.49945V17.4595H7.18895C5.23625 17.4595 3.87695 18.5911 3.87695 20.2126C3.87695 21.5374 4.74635 22.9588 7.18895 22.9588H13.3714L13.3852 22.9726C13.9303 23.5246 14.6617 23.8351 15.4414 23.8351C16.2418 23.8351 17.0146 23.5246 17.5528 22.9726ZM17.3527 20.9095C17.3527 21.9859 16.5316 22.7932 15.4414 22.7932C14.4064 22.7932 13.5991 21.9652 13.5991 20.9095C13.5991 19.84 14.4064 19.0051 15.4414 19.0051C16.5454 19.0051 17.3527 19.8055 17.3527 20.9095ZM31.6495 18.4945V21.9238H30.1315L30.1177 21.9169C29.4415 21.5167 29.0482 20.8957 29.0482 20.2057C29.0482 19.0948 30.0211 18.4945 30.9319 18.4945H31.6495ZM7.49945 18.4945V21.9238H6.87155C5.89865 21.9238 4.91195 21.3925 4.91195 20.2126C4.91195 19.15 5.92625 18.4945 6.87155 18.4945H7.49945ZM40.6057 14.8789H39.5707V22.9588H40.6057V14.8789Z" fill="white"/>
<path d="M8.02396 27.8372C7.64446 27.8372 7.36156 27.5612 7.36156 27.1955C7.36156 26.8436 7.65136 26.5607 8.02396 26.5607C8.40346 26.5607 8.69326 26.8367 8.69326 27.1955C8.69326 27.5612 8.40346 27.8372 8.02396 27.8372ZM6.82336 27.1955C6.82336 26.8436 6.53356 26.5607 6.16096 26.5607C5.78836 26.5607 5.49856 26.8367 5.49856 27.1955C5.49856 27.5612 5.78146 27.8372 6.16096 27.8372C6.54046 27.8372 6.82336 27.5612 6.82336 27.1955ZM14.8895 34.5233V29.024H13.4543C11.4878 29.024 10.2182 30.1004 10.2182 31.7702C10.2182 32.3981 10.4183 32.9501 10.8116 33.3986L10.8875 33.4883H8.56216V28.541H7.52716V29.024H7.21666C5.26396 29.024 3.90466 30.1556 3.90466 31.7771C3.90466 33.1019 4.77406 34.5233 7.21666 34.5233H14.8895ZM13.8545 30.059V33.4883H12.3365L12.3227 33.4814C11.6465 33.0812 11.2532 32.4602 11.2532 31.7702C11.2532 30.9422 11.9156 30.059 13.1369 30.059H13.8545ZM7.52026 30.059V33.4883H6.89236C5.91946 33.4883 4.93276 32.957 4.93276 31.7771C4.93276 30.7145 5.94706 30.059 6.89236 30.059H7.52026ZM13.682 27.5612C13.682 27.1955 13.3853 26.9057 12.9989 26.9057C12.6194 26.9057 12.3158 27.1955 12.3158 27.5612C12.3158 27.9338 12.6056 28.2167 12.9989 28.2167C13.3853 28.2098 13.682 27.9338 13.682 27.5612ZM23.8181 28.0718C23.8181 27.7061 23.5214 27.4163 23.135 27.4163C22.7555 27.4163 22.4519 27.7061 22.4519 28.0718C22.4519 28.4444 22.7417 28.7273 23.135 28.7273C23.5283 28.7204 23.8181 28.4444 23.8181 28.0718ZM33.4091 34.5371L33.4229 34.5233H37.625V26.4434H36.59V33.4883H34.0715L34.0922 33.4193C34.1957 33.1226 34.244 32.8121 34.244 32.4809C34.244 30.8042 32.9744 29.5346 31.2977 29.5346C29.6831 29.5346 28.4204 30.8318 28.4204 32.4809C28.4204 32.7983 28.4687 33.1088 28.5722 33.4193L28.5929 33.4883H26.5298V31.9496C26.5298 31.2734 26.3504 30.7007 26.0261 30.3281C25.5983 29.8382 25.0808 29.6243 24.2873 29.6243H21.0167V29.0171H19.9817V33.4814H17.4908V26.4434H16.4558V34.5233H29.2277L29.2415 34.5371C29.7866 35.096 30.518 35.3996 31.2977 35.3996C32.105 35.3996 32.8709 35.0891 33.4091 34.5371ZM33.209 32.474C33.209 33.5504 32.3879 34.3577 31.2977 34.3577C30.2627 34.3577 29.4554 33.5297 29.4554 32.474C29.4554 31.4045 30.2627 30.5696 31.2977 30.5696C32.4086 30.5696 33.209 31.37 33.209 32.474ZM21.0098 30.6662H24.2804C24.7151 30.6662 25.0325 30.7904 25.2257 31.0319C25.4051 31.2527 25.4879 31.5356 25.4879 31.9496V33.4883H21.0098V30.6662ZM40.6058 26.4434H39.5708V34.5233H40.6058V26.4434Z" fill="white"/>
<path d="M42.2892 56.0921H2.64181C1.60681 56.0921 0.765015 55.2503 0.765015 54.2153V41.2088C0.765015 40.1738 1.60681 39.332 2.64181 39.332H42.2892C43.3242 39.332 44.166 40.1738 44.166 41.2088V54.2153C44.1591 55.2503 43.3242 56.0921 42.2892 56.0921Z" fill="#C5992C"/>
<path d="M10.2664 50.8494L7.63059 41.9277H3.93909C5.16729 45.6261 7.78929 53.5473 7.82379 53.5473H12.4744L16.2901 41.9277H12.64L10.2664 50.8494Z" fill="white"/>
<path d="M40.9781 41.9277H28.7444L29.6621 44.5911H33.5744V53.5473H37.0865V44.5911H40.985L40.9781 41.9277Z" fill="white"/>
<path d="M28.2963 45.3691L28.6689 46.1902C28.6689 46.1902 26.0193 48.412 23.211 53.5525C23.211 53.5525 21.9897 51.3997 21.5481 50.7649L21.9828 49.0744L23.1903 50.4406C23.1903 50.4337 26.3712 46.6318 28.2963 45.3691Z" fill="#045C4D"/>
<path d="M23.9355 48.8277C24.6531 48.0273 25.6191 46.9992 26.5506 46.1505C25.7778 43.8597 25.1154 41.9277 25.1016 41.9277H20.451L16.6353 53.5473H20.2923L22.659 44.1771C22.659 44.184 23.2938 46.5024 23.9355 48.8277Z" fill="white"/>
<path d="M24.7704 51.8499C25.0533 52.8573 25.2465 53.5473 25.2534 53.5473H29.0415C29.0415 53.5473 28.1997 51.0357 27.2889 48.3516C26.5851 49.2003 25.7088 50.3595 24.7704 51.8499Z" fill="white"/>
</svg>
